# xmcd
#
# Track frame offsets: 
#        150
#        16014
#        36229
#        52217
#        85826
#        109459
#        125415
#        142343
#        159420
#        178863
#
# Disc length: 2659 seconds
#
# Revision: 0
# Processed by: cddbd v1.5.2PL0 Copyright (c) Steve Scherf et al.
# Submitted via: ExactAudioCopy v0.99pb4
#
DISCID=8d0a610a
DTITLE=Hokis Pokis - The Magic of Hokis Pokis
DYEAR=1974
DGENRE=Soul
TTITLE0=Can't Wait for Love
TTITLE1=Get Cha Girl
TTITLE2=Swing
TTITLE3=Keep on Rollin'
TTITLE4=City Rhythm
TTITLE5=Nowhere
TTITLE6=Find What You're Looking For
TTITLE7=Fire
TTITLE8=I Only Have Eyes for You
TTITLE9=Fallin' in Love
EXTD=
EXTT0=
EXTT1=
EXTT2=
EXTT3=
EXTT4=
EXTT5=
EXTT6=
EXTT7=
EXTT8=
EXTT9=
PLAYORDER=
